<svg xmlns="http://www.w3.org/2000/svg" xmlns:xlink="http://www.w3.org/1999/xlink" viewBox="0 0 428.37 16.82"><defs><style>.cls-1{fill:url(#Dégradé_sans_nom_34);}</style><linearGradient id="Dégradé_sans_nom_34" x1="426.8" y1="5.93" x2="-1.52" y2="9.16" gradientUnits="userSpaceOnUse"><stop offset="0" stop-color="#76cc92"/><stop offset="0.18" stop-color="#52ae77"/><stop offset="0.4" stop-color="#2f905b"/><stop offset="0.6" stop-color="#157a47"/><stop offset="0.79" stop-color="#056d3b"/><stop offset="0.93" stop-color="#006837"/></linearGradient></defs><g id="Calque_2" data-name="Calque 2"><g id="Calque_1-2" data-name="Calque 1"><path class="cls-1" d="M2.9,0c9,0,20,2,30,1s11,1,32,2c20.07,1,28-3,43-3,22,0,45,3,68,6s74-2,98-4,67,2,84,4,49-6,57-4,8,2,12,4-1,3-5,2-1,0-8-1c-6-.86-39,8-56,6s-61.9-4.11-84-2c-21,2-74,8-100,5s-52-6.78-66-6c-18,1-36,4-45,4-6.09,0-21-3-29-2s-18.77,2.05-29,0C-.1,11-2.1,0,2.9,0Z"/></g></g></svg>