<svg id="Calque_1" data-name="Calque 1" xmlns="http://www.w3.org/2000/svg" xmlns:xlink="http://www.w3.org/1999/xlink" viewBox="0 0 163 161"><defs><style>.cls-1{fill:none;}.cls-2{fill:url(#Dégradé_sans_nom_6);}</style><linearGradient id="Dégradé_sans_nom_6" x1="4.56" y1="79.84" x2="155.02" y2="79.84" gradientUnits="userSpaceOnUse"><stop offset="0" stop-color="red" stop-opacity="0.7"/><stop offset="1" stop-color="#f7931e"/></linearGradient></defs><path class="cls-1" d="M257,175H62V-2H257ZM226.85,74.75h0c0-.75,0-1.5,0-2.25L228,19c.07-3.35-1.5-6.5-3.94-7.15a16.56,16.56,0,0,0-6.13-.77c-7.6.92-15.22,1.81-22.72,3.33-14.77,3-29.52,6.18-44.17,9.7-9.22,2.21-18.31,5-27.33,7.94a8.39,8.39,0,0,0-4.52,4.53,29.37,29.37,0,0,0-1.88,9.69c-.55,22.57-.9,45.15-1.31,67.72,0,2-.15,4-.13,6s-.72,3.23-3.12,3c-2.81-.24-5.66-.18-8.49-.26a26.87,26.87,0,0,0-18.38,5.87c-6.28,5.1-9.36,11.73-8,19.82a13.2,13.2,0,0,0,3.63,7.13,23.77,23.77,0,0,0,11.71,5.8c8,1.58,15.81.77,22.8-3.13,8.09-4.51,12.84-11.81,13.09-21.32.4-15.66.52-31.33.77-47,.14-8.83.34-17.66.44-26.49,0-2.5.94-4,3.6-4.08a11.53,11.53,0,0,0,2-.42c11.3-2.46,22.59-5,33.93-7.34A199.9,199.9,0,0,1,206,47.19a29.72,29.72,0,0,1,6.15.69c2.34.44,3.19,2,3.11,4.39q-.6,17.73-1.06,35.47c-.22,7.75-.44,15.49-.52,23.24,0,3.25-.5,3.59-3.75,3.45a90.29,90.29,0,0,0-14.15.16c-6.55.76-11.86,4.23-16,9.31-4.75,5.81-4.73,15.22.07,20.58a19.31,19.31,0,0,0,11.39,6.33c7.3,1.14,14.64.93,21.56-2.29,8.08-3.77,12.78-10,13-19C226.17,111.24,226.48,93,226.85,74.75Z"/><path class="cls-2" d="M153.85,68c-.37,18.24-.68,36.49-1.12,54.73-.21,9.09-4.91,15.27-13,19-6.92,3.22-14.26,3.43-21.56,2.29a19.31,19.31,0,0,1-11.39-6.33c-4.8-5.36-4.82-14.77-.07-20.58,4.15-5.08,9.46-8.55,16-9.31a91.52,91.52,0,0,1,14.15-.16c3.25.14,3.72-.19,3.75-3.45.08-7.74.3-15.49.52-23.23q.48-17.74,1.06-35.48c.08-2.36-.77-3.94-3.11-4.39a30.42,30.42,0,0,0-6.15-.69,199.9,199.9,0,0,0-36.16,4.43c-11.34,2.34-22.63,4.89-33.93,7.34a11.53,11.53,0,0,1-2,.42c-2.66.11-3.57,1.58-3.6,4.08-.1,8.83-.3,17.66-.44,26.49-.25,15.67-.37,31.33-.77,47-.25,9.51-5,16.81-13.09,21.33-7,3.89-14.79,4.71-22.8,3.12a23.77,23.77,0,0,1-11.71-5.8,13.2,13.2,0,0,1-3.63-7.13c-1.34-8.09,1.74-14.72,8-19.82A26.92,26.92,0,0,1,31.27,116c2.83.08,5.68,0,8.49.26,2.4.21,3.13-.87,3.12-3s.09-4,.13-6c.41-22.58.76-45.16,1.31-67.73a29.37,29.37,0,0,1,1.88-9.69,8.43,8.43,0,0,1,4.52-4.53c9-2.92,18.11-5.73,27.33-7.94,14.65-3.52,29.4-6.71,44.17-9.7,7.5-1.51,15.12-2.41,22.72-3.33a16.77,16.77,0,0,1,6.13.77c2.44.65,4,3.8,3.94,7.15L153.9,65.75c0,.75,0,1.5,0,2.25ZM57.29,42.51c1.52-.25,2.34-.33,3.13-.52,13.62-3.17,27.15-6.76,40.86-9.43,13-2.54,25.86-5.76,39.2-6,.66,0,1.74-1.22,1.85-2,.3-2,.07-4.16.25-6.23.2-2.36-.86-3.23-3.07-3a113.69,113.69,0,0,0-11.41,1.23c-10.11,2.06-20.19,4.26-30.22,6.68C86,26.11,74.14,29.19,62.32,32.36c-1.6.43-3.62,1.6-4.2,3C57.27,37.33,57.54,39.82,57.29,42.51Z"/></svg>